<svg xmlns="http://www.w3.org/2000/svg" width="30" height="30"><path style="marker:none" fill="#1a1a1a" stroke="#d4d4d4" stroke-width="1.00021316" d="M358.89-52.61a13.63 13.63 0 1 1-27.26 0 13.63 13.63 0 1 1 27.26 0z" color="#000" overflow="visible"/><path fill="#1a1a1a" stroke="#d4d4d4" d="M345.296-64.472v11.863h0M357.16-52.61h-1.71 0M345.296-40.746v-2.018h0M333.433-52.61h11.863"/><path fill="none" d="M15 3.63L3.758 13.552h2.248V26.37h6.746v-7.565h4.65v7.565h6.592V13.553h2.248L15 3.629z" font-size="12"/><path fill="#1a1a1a" d="M4.766 6.411l10.56 21.945 9.908-4.767-10.56-21.945L4.766 6.41zM6.5 6.106l6.774-3.26 3.124 6.495L9.623 12.6 6.5 6.106zM5.45 6.94l.727-.35.566 1.175-.728.35L5.45 6.94zm8.383-4.034l.728-.35.565 1.175-.727.35-.566-1.175zm-7.096 6.71l.728-.35.565 1.175-.727.35-.566-1.175zm8.384-4.034l.727-.35.565 1.175-.727.35-.565-1.175zm-7.096 6.71l.727-.35.565 1.174-.727.35-.565-1.175zm8.383-4.034l.728-.35.565 1.174-.728.35-.565-1.174zM9.932 13.24l6.774-3.26 3.124 6.494-6.774 3.26-3.124-6.494zm-.62 1.726l.728-.35.565 1.175-.728.35-.565-1.175zm8.384-4.034l.727-.35.565 1.175-.727.35-.565-1.175zm-7.096 6.71l.727-.35.565 1.174-.727.35-.565-1.175zm8.383-4.034l.727-.35.566 1.174-.728.35-.565-1.174zm-7.096 6.709l.727-.35.566 1.175-.728.35-.565-1.175zm8.383-4.034l.728-.35.565 1.175-.727.35-.566-1.175zm-6.905 4.092l6.774-3.26 3.124 6.494-6.773 3.26-3.125-6.494zm-.19 2.618l.727-.35.565 1.174-.727.35-.566-1.174zm8.383-4.034l.727-.35.565 1.175-.727.35-.565-1.175zm-7.096 6.71l.727-.35.565 1.174-.727.35-.565-1.175zm8.383-4.035l.728-.35.565 1.175-.728.35-.565-1.175z"/></svg>